# xmcd
# 
# Track frame offsets:
#     150
#     15512
#     32390
#     49095
#     66018
# 
# Disc length: 1110
# 
# Revision: 2
# Processed by: cddbd v1.5.2PL0 Copyright (c) Steve Scherf et al.
# Submitted via: fre:ac v1.0.17
# 
DISCID=31045405
DTITLE=Davichi 다비치 - Innocence (2nd Mini Album)
DYEAR=2010
DGENRE=K-Pop
TTITLE0=시간아 멈춰라
TTITLE1=촛 키스
TTITLE2=떠나지마
TTITLE3=사랑을 못해 이별을 못해
TTITLE4=Shadow
EXTD=
EXTT0=
EXTT1=
EXTT2=
EXTT3=
EXTT4=
PLAYORDER=
